<svg id="Group_55270" data-name="Group 55270" xmlns="http://www.w3.org/2000/svg" width="51.636" height="39.362" viewBox="0 0 51.636 39.362">
  <g id="Group_54286" data-name="Group 54286" transform="translate(0 29.547)">
    <path id="Path_50728" data-name="Path 50728" d="M883.243,657.986H834.058a1.226,1.226,0,0,1,0-2.451h49.185a1.226,1.226,0,0,1,0,2.451Z" transform="translate(-832.833 -655.535)" fill="#fff"/>
  </g>
  <g id="Group_54287" data-name="Group 54287" transform="translate(11.469 36.911)">
    <path id="Path_50729" data-name="Path 50729" d="M884.158,673.009h-26.7a1.225,1.225,0,1,1,0-2.451h26.7a1.225,1.225,0,1,1,0,2.451Z" transform="translate(-856.229 -670.558)" fill="#fff"/>
  </g>
  <g id="Group_54288" data-name="Group 54288" transform="translate(9.818)">
    <path id="Path_50730" data-name="Path 50730" d="M868.861,627.261a16,16,0,1,1,16-16A16.019,16.019,0,0,1,868.861,627.261Zm0-29.549a13.549,13.549,0,1,0,13.549,13.549A13.565,13.565,0,0,0,868.861,597.712Z" transform="translate(-852.861 -595.261)" fill="#fff"/>
  </g>
</svg>
