<svg id="Clock_Icon" data-name="Clock Icon" xmlns="http://www.w3.org/2000/svg" width="24" height="24" viewBox="0 0 24 24">
  <rect id="bound" width="24" height="24" fill="none"/>
  <path id="Combined_Shape" data-name="Combined Shape" d="M9,18a9,9,0,1,1,9-9A9.01,9.01,0,0,1,9,18ZM8.963,3.5a.5.5,0,0,0-.5.462L8.032,9.588a.5.5,0,0,0,.367.521l4.469,1.219a.494.494,0,0,0,.133.018.5.5,0,0,0,.5-.5V10.79a.5.5,0,0,0-.252-.434L10,8.5,9.545,3.95a.5.5,0,0,0-.5-.45Z" transform="translate(3 4)" fill="#71c066"/>
</svg>
