<svg xmlns="http://www.w3.org/2000/svg" width="51.463" height="47.728" viewBox="0 0 51.463 47.728">
  <g id="Group_55271" data-name="Group 55271" transform="translate(-436.016 -448.525)">
    <g id="Group_54319" data-name="Group 54319" transform="translate(436.016 448.525)">
      <g id="Group_54310" data-name="Group 54310" transform="translate(0 0)">
        <g id="Group_54282" data-name="Group 54282" transform="translate(0 37.945)">
          <path id="Path_50725" data-name="Path 50725" d="M670.313,657.978h-49.02a1.221,1.221,0,1,1,0-2.443h49.02a1.221,1.221,0,0,1,0,2.443Z" transform="translate(-620.071 -655.535)" fill="#fff"/>
        </g>
        <g id="Group_54283" data-name="Group 54283" transform="translate(11.431 45.285)">
          <path id="Path_50726" data-name="Path 50726" d="M671.3,673H644.689a1.221,1.221,0,0,1,0-2.443H671.3a1.221,1.221,0,1,1,0,2.443Z" transform="translate(-643.468 -670.558)" fill="#fff"/>
        </g>
        <g id="Group_54284" data-name="Group 54284" transform="translate(9.785)">
          <path id="Path_50727" data-name="Path 50727" d="M656.046,597.8a15.946,15.946,0,1,1,15.946-15.946A15.965,15.965,0,0,1,656.046,597.8Zm0-29.45a13.5,13.5,0,1,0,13.5,13.5A13.519,13.519,0,0,0,656.046,568.35Z" transform="translate(-640.099 -565.907)" fill="#fff"/>
        </g>
      </g>
    </g>
  </g>
</svg>
