<svg id="Distance_Icon" data-name="Distance Icon" xmlns="http://www.w3.org/2000/svg" width="24" height="24" viewBox="0 0 24 24">
  <rect id="bound" width="24" height="24" fill="none"/>
  <path id="Combined_Shape" data-name="Combined Shape" d="M7.5,16.919a1.484,1.484,0,0,1-1.221-.628L0,7.5A7.48,7.48,0,0,1,2.062,2.062,7.48,7.48,0,0,1,7.5,0a7.356,7.356,0,0,1,5.438,2.344A7.651,7.651,0,0,1,15,7.5L8.721,16.291A1.484,1.484,0,0,1,7.5,16.919ZM7.5,4A2.5,2.5,0,1,0,10,6.5,2.5,2.5,0,0,0,7.5,4Z" transform="translate(5 3)" fill="#007e6a"/>
</svg>
