<svg id="Group_54302" data-name="Group 54302" xmlns="http://www.w3.org/2000/svg" width="52.702" height="25.096" viewBox="0 0 52.702 25.096">
  <g id="Group_54290" data-name="Group 54290" transform="translate(0 15.078)">
    <path id="Path_50731" data-name="Path 50731" d="M458.027,658.037h-50.2a1.251,1.251,0,0,1,0-2.5h50.2a1.251,1.251,0,0,1,0,2.5Z" transform="translate(-406.575 -655.535)" fill="#fff"/>
  </g>
  <g id="Group_54291" data-name="Group 54291" transform="translate(11.706 22.594)">
    <path id="Path_50732" data-name="Path 50732" d="M458.477,673.06H431.222a1.251,1.251,0,0,1,0-2.5h27.255a1.251,1.251,0,0,1,0,2.5Z" transform="translate(-429.971 -670.558)" fill="#fff"/>
  </g>
  <g id="Group_54292" data-name="Group 54292" transform="translate(10.019)">
    <path id="Path_50733" data-name="Path 50733" d="M459.262,642.977H426.6v-1.251a16.331,16.331,0,0,1,32.662,0Zm-30.1-2.5H456.7a13.831,13.831,0,0,0-27.547,0Z" transform="translate(-426.6 -625.4)" fill="#fff"/>
  </g>
</svg>
