<svg xmlns="http://www.w3.org/2000/svg" width="28" height="28" viewBox="0 0 28 28">
    <g id="Group_5" data-name="Group 5" transform="translate(-0.5)">
        <g id="Group_176" data-name="Group 176">
            <g id="Component_Icon_Google" data-name="Component/Icon/Google">
                <rect id="Rectangle_183" data-name="Rectangle 183" width="28" height="28"
                    transform="translate(0.5)" fill="#c4c4c4" opacity="0" />
                <path id="Vector"
                    d="M17.3,7.636H8.953v3.605h4.8c-.447,2.291-2.318,3.607-4.8,3.607a5.4,5.4,0,0,1-5.29-5.516,5.4,5.4,0,0,1,5.29-5.515,5.05,5.05,0,0,1,3.3,1.231l2.606-2.715A8.709,8.709,0,0,0,8.953,0,9.122,9.122,0,0,0,0,9.333a9.122,9.122,0,0,0,8.953,9.333c4.476,0,8.547-3.394,8.547-9.333A8.114,8.114,0,0,0,17.3,7.636Z"
                    transform="translate(4.782 4.667)" fill="#fff" />
            </g>
        </g>
    </g>
</svg>
