<svg id="language" xmlns="http://www.w3.org/2000/svg" width="54.474" height="54.474"
    viewBox="0 0 54.474 54.474">
    <g id="Group_55245" data-name="Group 55245" transform="translate(12.799 14.576)">
        <g id="Group_55244" data-name="Group 55244">
            <path id="Path_50844" data-name="Path 50844" d="M122.252,137h-.683l-1.276,6.384h3.236Z"
                transform="translate(-120.293 -137)" fill="#71c066" />
        </g>
    </g>
    <g id="Group_55247" data-name="Group 55247" transform="translate(40.576 27.343)">
        <g id="Group_55246" data-name="Group 55246">
            <path id="Path_50845" data-name="Path 50845"
                d="M381.374,257a16.679,16.679,0,0,0,2.62,4.625A16.848,16.848,0,0,0,386.721,257Z"
                transform="translate(-381.374 -257)" fill="#71c066" />
        </g>
    </g>
    <g id="Group_55249" data-name="Group 55249" transform="translate(25.818 9.682)">
        <g id="Group_55248" data-name="Group 55248">
            <path id="Path_50846" data-name="Path 50846"
                d="M266.531,91H246.712l4.133,33.161a4.954,4.954,0,0,1-1.183,3.633l-7,8h23.868A4.793,4.793,0,0,0,271.319,131V95.894A4.885,4.885,0,0,0,266.531,91Zm0,17.661h-.426a20.252,20.252,0,0,1-3.845,6.99c1.172,1.072,2.426,1.951,3.672,2.936a1.6,1.6,0,1,1-1.995,2.49c-1.354-1.069-2.625-1.964-3.9-3.13-1.271,1.167-2.436,2.061-3.79,3.13a1.6,1.6,0,1,1-1.995-2.49c1.246-.985,2.394-1.864,3.566-2.936a20.143,20.143,0,0,1-3.738-6.99h-.426a1.6,1.6,0,0,1,0-3.192h4.788v-1.6a1.6,1.6,0,1,1,3.192,0v1.6h4.894a1.6,1.6,0,1,1,0,3.192Z"
                transform="translate(-242.663 -91)" fill="#71c066" />
        </g>
    </g>
    <g id="Group_55251" data-name="Group 55251">
        <g id="Group_55250" data-name="Group 55250">
            <path id="Path_50847" data-name="Path 50847"
                d="M25.978,4.194A4.794,4.794,0,0,0,21.227,0H4.788A4.793,4.793,0,0,0,0,4.788V40.111A4.793,4.793,0,0,0,4.788,44.9H29.955c.466-.532.856-.865.872-1.56C30.832,43.164,26,4.367,25.978,4.194ZM19.571,30.5a1.6,1.6,0,0,1-1.878-1.252l-1.02-5.1H12.16l-1.02,5.1a1.6,1.6,0,0,1-3.129-.626L11.2,12.667a1.6,1.6,0,0,1,1.565-1.283h3.3a1.6,1.6,0,0,1,1.565,1.283l3.192,15.959A1.6,1.6,0,0,1,19.571,30.5Z"
                fill="#71c066" />
        </g>
    </g>
    <g id="Group_55253" data-name="Group 55253" transform="translate(18.647 48.09)">
        <g id="Group_55252" data-name="Group 55252">
            <path id="Path_50848" data-name="Path 50848"
                d="M175.261,452l.274,2.19a4.826,4.826,0,0,0,2.76,3.708l5.358-5.9h-8.391Z"
                transform="translate(-175.261 -452)" fill="#71c066" />
        </g>
    </g>
</svg>
