<svg xmlns="http://www.w3.org/2000/svg" xmlns:xlink="http://www.w3.org/1999/xlink" width="41.148" height="43.082" viewBox="0 0 41.148 43.082">
  <defs>
    <clipPath id="clip-path">
      <path id="Path_50814" data-name="Path 50814" d="M130.728,117.624a20.474,20.474,0,0,1-4.4,12.718v0a20.578,20.578,0,0,1-32.341,0v0a20.574,20.574,0,1,1,36.745-12.718Z" transform="translate(-89.58 -97.05)" fill="none"/>
    </clipPath>
  </defs>
  <g id="Group_55198" data-name="Group 55198" transform="translate(0)">
    <g id="Group_55197" data-name="Group 55197" transform="translate(0 0)">
      <path id="Path_50812" data-name="Path 50812" d="M130.728,117.624a20.474,20.474,0,0,1-4.4,12.718v0a20.578,20.578,0,0,1-32.341,0v0a20.574,20.574,0,1,1,36.745-12.718Z" transform="translate(-89.58 -95.116)" fill="#208fe0"/>
      <g id="Group_55195" data-name="Group 55195" transform="translate(0 1.934)">
        <g id="Group_55194" data-name="Group 55194" clip-path="url(#clip-path)">
          <path id="Path_50813" data-name="Path 50813" d="M126.666,278.982H112.185a12.013,12.013,0,0,0-12.009,12.009v7.182H138.7v-7.182A12.056,12.056,0,0,0,126.666,278.982Z" transform="translate(-98.866 -256.49)" fill="#ddf5ff"/>
        </g>
      </g>
      <g id="Group_55196" data-name="Group 55196" transform="translate(9.655 10.497)">
        <ellipse id="Ellipse_829" data-name="Ellipse 829" cx="3.17" cy="3.17" rx="3.17" ry="3.17" fill="#eeb490"/>
        <circle id="Ellipse_830" data-name="Ellipse 830" cx="3.17" cy="3.17" r="3.17" transform="translate(15.47 0)" fill="#eeb490"/>
      </g>
      <ellipse id="Ellipse_831" data-name="Ellipse 831" cx="9.887" cy="9.887" rx="9.887" ry="9.887" transform="translate(10.673)" fill="#56545f"/>
      <path id="Path_50815" data-name="Path 50815" d="M187.411,238.069v-.6a7.781,7.781,0,0,1-3.78,1.592,7.78,7.78,0,0,1-3.78-1.592v.6c0,2.214-4.684,4.387-6.422,5.118,1.111,2.35,4.5,8.328,10.271,8.328s9.067-5.969,10.145-8.323C192.116,242.466,187.411,240.288,187.411,238.069Z" transform="translate(-163.063 -218.18)" fill="#c6eeff"/>
      <circle id="Ellipse_832" data-name="Ellipse 832" cx="5.379" cy="5.379" r="5.379" transform="translate(15.18 17.941)" fill="#eeb490"/>
      <path id="Path_50816" data-name="Path 50816" d="M205.151,132.919c-.872,1.541-3.489,2.675-6.572,2.675s-5.7-1.134-6.572-2.675a8.052,8.052,0,0,0-1.512,4.711v5.932a8.084,8.084,0,0,0,16.167,0v-5.9A8.075,8.075,0,0,0,205.151,132.919Z" transform="translate(-178.02 -126.551)" fill="#faccb4"/>
      <path id="Path_50817" data-name="Path 50817" d="M195.862,90.54a9.886,9.886,0,0,0-19.715,0Z" transform="translate(-165.445 -81.409)" fill="#f1f3f7"/>
    </g>
    <path id="Path_50818" data-name="Path 50818" d="M170.286,382.585a.845.845,0,0,0-.845.845v2q.82.5,1.689.924V383.43A.845.845,0,0,0,170.286,382.585Z" transform="translate(-159.568 -345.351)" fill="#c6eeff"/>
    <path id="Path_50819" data-name="Path 50819" d="M329.739,382.585a.845.845,0,0,0-.845.845v2.929q.868-.424,1.689-.924v-2A.845.845,0,0,0,329.739,382.585Z" transform="translate(-299.308 -345.351)" fill="#c6eeff"/>
  </g>
</svg>
