<svg id="Distance_Icon" data-name="Distance Icon" xmlns="http://www.w3.org/2000/svg" width="24" height="24" viewBox="0 0 24 24">
  <rect id="bound" width="24" height="24" fill="none"/>
  <g id="mosque-2" transform="translate(-85.542 -14.21)">
    <path id="Path_50734" data-name="Path 50734" d="M251,152.75h.425v1.773H251Z" transform="translate(-153.671 -130.933)" fill="#007e6a"/>
    <rect id="Rectangle_26803" data-name="Rectangle 26803" width="14.083" height="1.545" rx="0.772" transform="translate(90.5 34.876)" fill="#007e6a"/>
    <path id="Path_50736" data-name="Path 50736" d="M100.011,192.263c7.653,3.634,3.669,8.632,3.669,8.632h-12s-3.984-5,3.669-8.632a4.014,4.014,0,0,0,1.426-1.1,2.362,2.362,0,0,0,.583-1.438h0a.321.321,0,1,1,.642,0,2.362,2.362,0,0,0,.583,1.438A4.014,4.014,0,0,0,100.011,192.263Z" transform="translate(-0.139 -166.018)" fill="#007e6a"/>
    <path id="Path_50738" data-name="Path 50738" d="M204.933,19.519a.066.066,0,0,1,.127.032,2.761,2.761,0,0,1-3.007,2.53,2.873,2.873,0,0,1-.612-.051,3.046,3.046,0,0,1,1.2-5.975.066.066,0,0,1-.014.131h-.008a2.479,2.479,0,1,0,.037,4.958A2.452,2.452,0,0,0,204.933,19.519Z" transform="translate(-103.9 0)" fill="#007e6a"/>
    <path id="Path_50739" data-name="Path 50739" d="M252.957,44.221l.379.768a.021.021,0,0,0,.015.011l.847.123a.021.021,0,0,1,.011.035l-.613.6a.02.02,0,0,0-.006.018l.145.845a.02.02,0,0,1-.03.022l-.757-.4a.022.022,0,0,0-.019,0l-.757.4a.02.02,0,0,1-.03-.022l.144-.845a.019.019,0,0,0-.006-.018l-.612-.6a.021.021,0,0,1,.012-.035l.846-.123a.021.021,0,0,0,.016-.011l.378-.768a.021.021,0,0,1,.037,0Z" transform="translate(-154.305 -27.011)" fill="#007e6a"/>
    <g id="Group_55160" data-name="Group 55160" transform="translate(92.112 27.162)">
      <path id="Path_50740" data-name="Path 50740" d="M187.865,279.046a.213.213,0,0,1-.094-.4,5.936,5.936,0,0,1,.592-.25.213.213,0,1,1,.144.4,5.53,5.53,0,0,0-.55.232A.212.212,0,0,1,187.865,279.046Z" transform="translate(-185.131 -278.379)" fill="#007e6a"/>
      <path id="Path_50741" data-name="Path 50741" d="M128.609,295.19a.213.213,0,0,1-.169-.342,7.936,7.936,0,0,1,1.9-1.789.213.213,0,0,1,.233.356,7.508,7.508,0,0,0-1.8,1.692A.212.212,0,0,1,128.609,295.19Z" transform="translate(-128.396 -292.401)" fill="#007e6a"/>
    </g>
  </g>
</svg>
