<svg xmlns="http://www.w3.org/2000/svg" width="23" height="33.354" viewBox="0 0 23 33.354">
    <g id="mosque-2" transform="translate(-90.5 -15.998)">
        <path id="Path_50734" data-name="Path 50734" d="M251,152.75h.695v2.895H251Z"
            transform="translate(-149.347 -127.249)" fill="#71c066" />
        <rect id="Rectangle_26803" data-name="Rectangle 26803" width="23" height="2.523" rx="1.262"
            transform="translate(90.5 46.829)" fill="#71c066" />
        <path id="Path_50736" data-name="Path 50736"
            d="M105.941,194.08c12.5,5.934,5.992,14.1,5.992,14.1H92.339s-6.507-8.163,5.992-14.1a6.555,6.555,0,0,0,2.328-1.8,3.857,3.857,0,0,0,.952-2.348h0a.525.525,0,1,1,1.049,0,3.857,3.857,0,0,0,.952,2.348A6.555,6.555,0,0,0,105.941,194.08Z"
            transform="translate(-0.135 -161.347)" fill="#71c066" />
        <path id="Path_50738" data-name="Path 50738"
            d="M208.679,21.748a.108.108,0,0,1,.208.052c-.2,1.531-1.1,4.046-4.911,4.132a4.692,4.692,0,0,1-1-.084,4.975,4.975,0,0,1,1.952-9.757.108.108,0,0,1-.023.213h-.013a4.049,4.049,0,1,0,.06,8.1A4.005,4.005,0,0,0,208.679,21.748Z"
            transform="translate(-100.977 0)" fill="#71c066" />
        <path id="Path_50739" data-name="Path 50739"
            d="M253.777,44.228l.618,1.255a.035.035,0,0,0,.025.019l1.383.2a.034.034,0,0,1,.019.058l-1,.977a.033.033,0,0,0-.01.029l.236,1.379a.033.033,0,0,1-.049.035l-1.237-.651a.035.035,0,0,0-.031,0l-1.236.651a.033.033,0,0,1-.049-.035l.236-1.379a.031.031,0,0,0-.01-.029l-1-.977a.034.034,0,0,1,.019-.058l1.382-.2a.034.034,0,0,0,.026-.019l.618-1.255a.034.034,0,0,1,.06,0Z"
            transform="translate(-149.964 -26.251)" fill="#71c066" />
        <g id="Group_55160" data-name="Group 55160" transform="translate(93.133 34.23)">
            <path id="Path_50740" data-name="Path 50740"
                d="M188,279.468a.347.347,0,0,1-.153-.66,9.709,9.709,0,0,1,.967-.409.347.347,0,0,1,.235.654,9.018,9.018,0,0,0-.9.38A.346.346,0,0,1,188,279.468Z"
                transform="translate(-183.535 -278.379)" fill="#71c066" />
            <path id="Path_50741" data-name="Path 50741"
                d="M128.743,296.561a.347.347,0,0,1-.275-.559,12.961,12.961,0,0,1,3.108-2.921.347.347,0,1,1,.38.582,12.262,12.262,0,0,0-2.937,2.763A.347.347,0,0,1,128.743,296.561Z"
                transform="translate(-128.396 -292.006)" fill="#71c066" />
        </g>
    </g>
</svg>
