<svg xmlns="http://www.w3.org/2000/svg" width="41.148" height="42.996" viewBox="0 0 41.148 42.996">
  <g id="Group_55193" data-name="Group 55193" transform="translate(0)">
    <path id="Path_50791" data-name="Path 50791" d="M126.189,130.516a20.574,20.574,0,1,0-32.07,0Z" transform="translate(-89.58 -95.204)" fill="#d54ccf"/>
    <path id="Path_50792" data-name="Path 50792" d="M199.387,97.771a15.927,15.927,0,0,0,.372-3.442c0-6.749-4.135-12.22-9.237-12.22s-9.237,5.471-9.237,12.22a15.927,15.927,0,0,0,.372,3.442Z" transform="translate(-169.949 -82.108)" fill="#535b6e"/>
    <path id="Path_50793" data-name="Path 50793" d="M189.351,92.419a1.268,1.268,0,0,1-1.4-1.108,1.264,1.264,0,0,1,.137-.745A.186.186,0,0,0,188,90.3a1.8,1.8,0,0,1-.413-3.1c-3.663,1.622-6.3,6.2-6.3,11.59a15.9,15.9,0,0,0,.372,3.442h7.692V92.419Z" transform="translate(-169.949 -86.575)" fill="#40495e"/>
    <path id="Path_50794" data-name="Path 50794" d="M125.2,299.135a20.576,20.576,0,0,0,32.341,0,16.435,16.435,0,0,0-1.178-6.011,5.834,5.834,0,0,0-4.151-3.167s-.289-.109-.75-.305c-1.187,2.5-4.459,8.074-10.029,8.074s-8.926-5.578-10.15-8.076c-.464.2-.755.307-.755.307a5.834,5.834,0,0,0-4.151,3.167A16.435,16.435,0,0,0,125.2,299.135Z" transform="translate(-120.797 -263.992)" fill="#ddf5ff"/>
    <path id="Path_50795" data-name="Path 50795" d="M187.411,244.429v-.6a7.781,7.781,0,0,1-3.78,1.592,7.779,7.779,0,0,1-3.78-1.592v.6c0,2.214-4.684,4.387-6.422,5.118,1.111,2.35,4.5,8.328,10.271,8.328s9.067-5.969,10.145-8.323C192.116,248.826,187.411,246.649,187.411,244.429Z" transform="translate(-163.063 -223.84)" fill="#c6eeff"/>
    <path id="Path_50796" data-name="Path 50796" d="M183.637,250.013v-4.588h-.006a7.779,7.779,0,0,1-3.78-1.592v.6c0,2.214-4.684,4.387-6.422,5.118,1,2.108,3.829,7.133,8.564,8.147a2.326,2.326,0,0,1,.209-4.031.345.345,0,0,0,.119-.516,1.952,1.952,0,0,1,1.316-3.135Z" transform="translate(-163.063 -223.84)" fill="#a7e4ff"/>
    <path id="Path_50797" data-name="Path 50797" d="M207.068,244.429v-.6a7.781,7.781,0,0,1-3.78,1.592,7.779,7.779,0,0,1-3.78-1.592v.6c0,1.374-1.8,2.732-3.589,3.74a7.829,7.829,0,0,0,14.855.066C208.953,247.222,207.068,245.834,207.068,244.429Z" transform="translate(-182.773 -223.84)" fill="#2c354c"/>
    <path id="Path_50798" data-name="Path 50798" d="M203.347,250.013v-4.59l-.059,0a7.781,7.781,0,0,1-3.78-1.592v.6c0,1.374-1.8,2.732-3.588,3.74a8.217,8.217,0,0,0,6.169,5.274.336.336,0,0,0-.058-.295A1.954,1.954,0,0,1,203.347,250.013Z" transform="translate(-182.773 -223.84)" fill="#202942"/>
    <path id="Path_50799" data-name="Path 50799" d="M184.3,208.8c1.123,5.073,4.667,10.575,8.864,10.575s7.741-5.5,8.864-10.575Z" transform="translate(-172.588 -193.136)" fill="#40495e"/>
    <path id="Path_50800" data-name="Path 50800" d="M191.991,217.651a2.091,2.091,0,0,1,1.077-1.83V208.8H184.3c1.1,4.96,4.51,10.328,8.584,10.566A2.09,2.09,0,0,1,191.991,217.651Z" transform="translate(-172.588 -193.136)" fill="#2c354c"/>
    <path id="Path_50801" data-name="Path 50801" d="M214.619,117.549c0-4.966-3.043-8.992-6.8-8.992s-6.8,4.026-6.8,8.992,3.043,8.992,6.8,8.992S214.619,122.515,214.619,117.549Z" transform="translate(-187.249 -105.287)" fill="#40495e"/>
    <path id="Path_50802" data-name="Path 50802" d="M206.65,115.272a1.269,1.269,0,0,1-1.4-1.108,1.264,1.264,0,0,1,.137-.745.191.191,0,0,0,.016-.137c-2.562,1.288-4.383,4.566-4.383,8.408,0,4.437,2.429,8.123,5.624,8.858V115.272Z" transform="translate(-187.247 -109.428)" fill="#2c354c"/>
    <path id="Path_50803" data-name="Path 50803" d="M188.109,213.157l-2.164-9-2.7-.654,1.244,8.544a1.532,1.532,0,0,0,.886,1.268l1.574.726A.827.827,0,0,0,188.109,213.157Z" transform="translate(-171.664 -188.497)" fill="#40495e"/>
    <path id="Path_50804" data-name="Path 50804" d="M289.32,213.157l2.164-9,2.7-.654-1.244,8.544a1.532,1.532,0,0,1-.885,1.268l-1.574.726A.827.827,0,0,1,289.32,213.157Z" transform="translate(-264.616 -188.497)" fill="#535b6e"/>
    <path id="Path_50805" data-name="Path 50805" d="M211.863,130.529a29.462,29.462,0,0,1,4.71-.373,29.987,29.987,0,0,1,3.218.172,2.37,2.37,0,0,1,1.57.844c-.772-1.7-2.438-4.264-5.468-4.264-3.308,0-4.989,3.053-5.658,4.707A2.365,2.365,0,0,1,211.863,130.529Z" transform="translate(-195.318 -121.369)" fill="#ddf5ff"/>
    <path id="Path_50806" data-name="Path 50806" d="M214.044,131.98a2.714,2.714,0,0,1,.224-2.883c-2.252.782-3.483,3.08-4.031,4.437a2.364,2.364,0,0,1,1.628-1.086c.708-.115,1.436-.2,2.179-.266v-.2Z" transform="translate(-195.32 -123.288)" fill="#a7e4ff"/>
    <path id="Path_50807" data-name="Path 50807" d="M217.754,156.438a12.077,12.077,0,0,1-.173-2.159q0-.128,0-.252a2.364,2.364,0,0,0-2.114-2.3,29.883,29.883,0,0,0-3.218-.172,29.478,29.478,0,0,0-4.71.373,2.363,2.363,0,0,0-1.985,2.323v.023a12.079,12.079,0,0,1-.173,2.159c-.337,1.879.446,3.309,1.218,5.244a6.681,6.681,0,0,0,3.9,4.025,2.843,2.843,0,0,0,2.132,0,6.681,6.681,0,0,0,3.9-4.025C217.308,159.748,218.09,158.317,217.754,156.438Z" transform="translate(-190.992 -142.974)" fill="#fcc4b9"/>
    <path id="Path_50808" data-name="Path 50808" d="M212.585,166.45a6.534,6.534,0,0,1-2.795-4.237c-.552-2.037-1.113-3.542-.872-5.52a18.584,18.584,0,0,0,.124-2.273V154.4a3,3,0,0,1,.674-1.976c-.743.063-1.471.151-2.179.266a2.363,2.363,0,0,0-1.986,2.323v.023a12.078,12.078,0,0,1-.173,2.159c-.336,1.879.446,3.309,1.218,5.244a6.68,6.68,0,0,0,3.9,4.025,2.84,2.84,0,0,0,2.116.006Z" transform="translate(-190.993 -143.727)" fill="#f9af9d"/>
    <path id="Path_50809" data-name="Path 50809" d="M170.286,382.585a.845.845,0,0,0-.845.845v2q.82.5,1.689.924V383.43A.845.845,0,0,0,170.286,382.585Z" transform="translate(-159.568 -345.438)" fill="#c6eeff"/>
    <path id="Path_50810" data-name="Path 50810" d="M329.739,382.585a.845.845,0,0,0-.845.845v2.929q.868-.424,1.689-.924v-2A.845.845,0,0,0,329.739,382.585Z" transform="translate(-299.308 -345.438)" fill="#c6eeff"/>
    <path id="Path_50811" data-name="Path 50811" d="M129.26,295.2a7.737,7.737,0,0,1,1.9-5.117c-.39.164-.63.254-.63.254a5.835,5.835,0,0,0-4.151,3.167,16.435,16.435,0,0,0-1.178,6.011,20.7,20.7,0,0,0,4.059,3.911C129.26,300.645,129.26,297.018,129.26,295.2Z" transform="translate(-120.797 -264.369)" fill="#a7e4ff"/>
  </g>
</svg>
